<svg id="Capa_1" data-name="Capa 1" xmlns="http://www.w3.org/2000/svg" viewBox="0 0 754.89 118.64"><defs><style>.cls-1{fill:#000111;}.cls-2{fill:#33b1ff;}.cls-3{fill:#5ebb1e;}</style></defs><title>logoV2_black-letters</title><path class="cls-1" d="M89.65,7.73V35.86Q70.93,24.61,56.87,24.61t-22.5,9.67q-8.44,9.66-8.44,26,0,15.48,8.88,24.74T58.54,94.3q13,0,31.11-10.46v28q-20.3,6.76-33.84,6.76-23.28,0-39.55-17.09T0,59.76q0-25,16.57-42.41T56.87,0Q72.16,0,89.65,7.73Z" transform="translate(0 0.09)"/><path class="cls-1" d="M104.59,59.24q0-25.58,16.92-42.23T161.63.35q25.67,0,42.45,16.74t16.79,42.32q0,25.41-16.61,42.19t-41.84,16.79q-25.21,0-41.52-16.7T104.59,59.24Zm58.19-35.86q-14.5-.27-23.38,10t-8.88,26.54q0,15.39,9,25.49a29.38,29.38,0,0,0,22.85,10.11q14.51,0,23.43-10t8.92-26.32q0-16.08-8.75-25.84T162.78,23.38Z" transform="translate(0 0.09)"/><path class="cls-1" d="M241.09,1.58h39.37q25.23,0,40.61,15.91t15.38,41.92q0,26.11-15.87,41.84T278.35,117H241.09Zm25,21.8V94.66H276q15.28,0,25.14-8.35T311,58.45a41.44,41.44,0,0,0-4.75-20.09A24.33,24.33,0,0,0,292.46,26.5a52.44,52.44,0,0,0-17.18-3.12Z" transform="translate(0 0.09)"/><path d="M356.05,1.58H421V24.43H380.92V47.72H421v22.5H380.92V94.13H421V117H356.05Z" transform="translate(0 0.09)"/><path class="cls-2" d="M433.3,1.58h22.14L474,80.24,493.43,1.58h15.82l19.11,79,18.94-79h22.15L541.51,117H518.12L501.2,46.23,484.2,117H460.9Z" transform="translate(0 0.09)"/><path class="cls-1" d="M649.43,12,634,29q-12.23-7.2-17.58-7.2a9.53,9.53,0,0,0-7.12,3.08,10.38,10.38,0,0,0-3,7.42q0,8.52,15.47,14.77a108,108,0,0,1,17.14,8.74,31.45,31.45,0,0,1,9.71,10.86,30.07,30.07,0,0,1,3.91,15q0,14.85-12,25.84a40.62,40.62,0,0,1-28.35,11q-17.92,0-35.42-16.87l16.35-19.07q11,11.31,20.64,11.31,4.47,0,8.61-4t4.13-8.38q0-9-19.07-15.92-10.9-4-15.47-7.44a26.64,26.64,0,0,1-7.69-10.11,31.63,31.63,0,0,1-3.12-13.58q0-15.38,10-25T617.29-.09Q636.42,0,649.43,12Z" transform="translate(0 0.09)"/><path class="cls-3" d="M662.42,116.31v-9h92.47v9Z" transform="translate(0 0.09)"/></svg>